<?xml version="1.0" encoding="utf-8"?>
<!-- Generator: Adobe Illustrator 22.1.0, SVG Export Plug-In . SVG Version: 6.00 Build 0)  -->
<svg version="1.1" id="Layer_1" xmlns="http://www.w3.org/2000/svg" xmlns:xlink="http://www.w3.org/1999/xlink" x="0px" y="0px"
	 viewBox="0 0 512 512" style="enable-background:new 0 0 512 512;" xml:space="preserve">
<g>
	<path d="M438.8,31H73.2C50,31,31,50,31,73.2v365.6C31,462,50,481,73.2,481h365.6c23.2,0,42.2-19,42.2-42.2V73.2
		C481,50,462,31,438.8,31z M340.4,101.3c0-7.7,6.3-14.1,14.1-14.1h56.2c7.7,0,14.1,6.3,14.1,14.1v56.2c0,7.7-6.3,14.1-14.1,14.1
		h-56.2c-7.7,0-14.1-6.3-14.1-14.1V101.3z M256,171.6c46.6,0,84.4,37.8,84.4,84.4s-37.8,84.4-84.4,84.4s-84.4-37.8-84.4-84.4
		S209.4,171.6,256,171.6z M424.8,410.7L424.8,410.7c0,7.7-6.3,14.1-14.1,14.1H101.3c-7.7,0-14.1-6.3-14.1-14.1l0,0V227.9h30.9
		c-1.9,9.1-2.8,18.4-2.8,28.1c0,77.7,62.9,140.6,140.6,140.6S396.6,333.7,396.6,256c0-9.7-1-19.1-2.8-28.1h30.9V410.7z"/>
</g>
</svg>
